<svg id="visual" viewBox="0 0 900 600" width="900" height="600" xmlns="http://www.w3.org/2000/svg" xmlns:xlink="http://www.w3.org/1999/xlink" version="1.1"><rect x="0" y="0" width="900" height="600" fill="#ffffff"></rect><path d="M0 327L129 400L257 386L386 370L514 370L643 301L771 341L900 370L900 601L771 601L643 601L514 601L386 601L257 601L129 601L0 601Z" fill="#000000"></path><path d="M0 405L129 380L257 382L386 370L514 376L643 424L771 385L900 349L900 601L771 601L643 601L514 601L386 601L257 601L129 601L0 601Z" fill="#0c0a0a"></path><path d="M0 429L129 428L257 410L386 426L514 413L643 389L771 462L900 413L900 601L771 601L643 601L514 601L386 601L257 601L129 601L0 601Z" fill="#141313"></path><path d="M0 449L129 440L257 431L386 438L514 440L643 435L771 431L900 469L900 601L771 601L643 601L514 601L386 601L257 601L129 601L0 601Z" fill="#1a1919"></path><path d="M0 480L129 476L257 470L386 461L514 513L643 496L771 519L900 472L900 601L771 601L643 601L514 601L386 601L257 601L129 601L0 601Z" fill="#201f1f"></path><path d="M0 501L129 497L257 493L386 547L514 536L643 515L771 542L900 492L900 601L771 601L643 601L514 601L386 601L257 601L129 601L0 601Z" fill="#272626"></path><path d="M0 574L129 535L257 574L386 556L514 565L643 576L771 542L900 573L900 601L771 601L643 601L514 601L386 601L257 601L129 601L0 601Z" fill="#2d2c2c"></path></svg>